<?xml version="1.0" standalone="no"?>
<!DOCTYPE svg PUBLIC "-//W3C//DTD SVG 20010904//EN"
 "http://www.w3.org/TR/2001/REC-SVG-20010904/DTD/svg10.dtd">
<svg version="1.0" xmlns="http://www.w3.org/2000/svg"
 width="512.000000pt" height="512.000000pt" viewBox="0 0 512.000000 512.000000"
 preserveAspectRatio="xMidYMid meet">
<metadata>
Created by potrace 1.11, written by Peter Selinger 2001-2013
</metadata>
<g transform="translate(0.000000,512.000000) scale(0.100000,-0.100000)"
fill="#000000" stroke="none">
<path d="M2399 5116 c-2 -2 -44 -6 -92 -10 -49 -3 -92 -8 -95 -10 -4 -2 -32
-7 -62 -11 -129 -15 -398 -89 -550 -152 -546 -225 -1001 -627 -1278 -1131 -48
-89 -58 -108 -110 -222 -81 -179 -158 -449 -186 -650 -28 -200 -29 -569 -2
-725 3 -16 8 -43 10 -60 24 -172 103 -436 185 -621 236 -528 650 -971 1153
-1232 206 -106 451 -194 658 -236 216 -43 291 -50 525 -51 217 0 307 8 480 41
44 8 91 18 105 20 131 25 390 118 553 200 639 319 1107 870 1316 1549 39 128
71 273 86 385 27 212 27 561 1 715 -3 17 -8 44 -10 60 -3 17 -10 55 -16 85 -6
30 -14 66 -16 80 -3 14 -16 64 -30 112 -144 516 -446 970 -869 1310 -257 206
-583 373 -901 462 -110 30 -249 59 -344 72 -25 3 -56 8 -70 10 -30 6 -435 15
-441 10z"/>
</g>
</svg>
